<svg width="122" height="83" viewBox="0 0 122 83" fill="none" xmlns="http://www.w3.org/2000/svg">
<g filter="url(#filter0_d_4405_43)">
<path d="M100.834 35.0134C100.888 36.2227 100.554 37.7744 100.114 38.8452C99.9781 39.1825 99.9781 38.9866 99.8776 39.2164C99.6783 39.6626 99.5286 40.0793 99.2866 40.4978C99.208 40.6312 99.2004 40.4126 99.1201 40.5528C98.6753 41.3244 98.2542 42.0583 97.7233 42.7715C95.0598 46.2839 91.6807 48.8903 88.0194 51.1573C86.7981 51.9087 85.2668 52.6688 83.9783 53.3796C83.83 53.4618 83.962 53.4973 83.9368 53.5189C83.5375 53.8542 83.6031 53.6115 83.2949 53.7393C82.066 54.2479 80.7408 54.8486 79.5826 55.3807C79.0882 55.6073 79.6592 55.5647 79.1206 55.6797C79.0833 55.6878 79.1711 55.5451 79.0314 55.5921C78.7155 55.6993 78.1318 55.955 77.885 56.044C77.4086 56.2158 77.3389 56.2437 76.8957 56.412C76.2894 56.6407 75.5481 56.8598 74.9022 57.1085C74.7638 57.162 74.9825 57.1922 74.7642 57.286C74.5461 57.3804 73.9448 57.5749 73.7402 57.6171C73.5331 57.6606 73.5934 57.5576 73.5525 57.5521C73.2156 57.5034 72.5898 57.9244 72.5008 57.957C70.9083 58.548 69.4683 58.8254 67.9238 59.2158C66.7609 59.5095 65.5232 59.8321 64.3954 60.0606C64.3861 60.0625 64.3767 60.0644 64.3674 60.0663C63.0171 60.3377 61.8652 60.4933 60.5556 60.7141C60.4177 60.737 60.5982 60.8276 60.4296 60.8558C58.6198 61.1568 56.8285 61.3692 55.0031 61.4562C54.8216 61.4645 55.0451 61.3404 54.8635 61.3424C53.7435 61.3626 51.9836 61.2643 51.3407 61.7389C50.5947 61.7545 49.6595 61.7607 48.9921 61.6762C48.5579 61.6216 48.9791 61.506 48.4424 61.5569C48.3213 61.5679 48.4791 61.6664 48.2974 61.6753C47.5338 61.7125 46.7044 61.667 45.947 61.6919C45.7936 61.6972 45.8323 61.787 45.7883 61.8014C45.4214 61.918 44.8173 61.675 44.6857 61.6517C43.6864 61.4808 42.9414 61.4687 42.0122 61.3748C41.7972 61.3525 42.0396 61.4964 41.8321 61.479C40.7347 61.3842 39.611 61.2244 38.5732 60.9979C38.3375 60.9462 38.5728 60.8831 38.4612 60.8532C37.9718 60.7217 37.8284 60.8899 37.366 60.7596C37.2688 60.7321 37.341 60.6578 37.3248 60.645C37.0763 60.4445 36.782 60.5996 36.7081 60.5889C35.7705 60.4558 35.2322 60.0995 34.3546 59.8954C34.2499 59.8708 34.4548 60.0409 34.1621 59.9649C32.1883 59.4515 30.1385 58.667 28.3834 57.6436C28.1122 57.4849 28.349 57.517 28.3361 57.4988C28.1302 57.2096 27.8489 57.2942 27.7522 57.2486C27.0125 56.8951 26.4794 56.326 25.8911 56.2093C23.6924 54.5423 21.7114 52.2557 21.2287 49.435C21.1078 48.7507 21.0758 48.0595 21.1323 47.3762C21.1357 47.3327 21.2389 47.4123 21.2454 47.3261C21.3544 46.2891 21.1916 46.4836 21.1011 45.7515C21.0807 45.5599 21.4336 45.0894 21.4642 45.0514C21.5693 44.902 21.6765 45.1119 21.7028 45.0599C21.9191 44.6388 21.398 44.5631 21.6048 43.9495C21.6122 43.9307 21.6738 44.042 21.7005 43.9941C21.7837 43.8461 21.8068 43.6763 21.8981 43.5337C22.1092 43.2128 22.381 43.2014 22.4946 42.6257C22.5108 42.5532 22.193 42.5203 22.4688 42.0201C22.5746 41.8152 23.082 40.9421 23.2598 40.7182C23.4319 40.4901 23.4032 40.7058 23.4177 40.6909C23.9438 40.1318 23.8246 40.4045 24.1904 40.2067C24.5576 40.015 24.1456 39.8379 24.1996 39.6838C24.2573 39.5235 24.6708 39.1648 24.7868 39.082C24.9 39.0002 24.8396 39.1683 24.9312 39.0885C25.5441 38.5622 24.9926 38.6774 25.109 38.4337C25.3873 37.8629 25.9727 37.7129 26.3805 37.3436C26.4936 37.2414 26.3535 37.2777 26.4445 37.1763C26.8114 36.7731 27.1124 36.6244 27.5014 36.1425C27.5629 36.0651 27.8134 35.5782 28.146 35.4825C28.1937 35.4688 28.1491 35.6136 28.3342 35.479C28.6083 35.2791 29.1075 34.8915 29.3723 34.6487C29.5723 34.4655 29.2453 34.5527 29.5403 34.3742C29.6719 34.2953 29.497 34.53 29.7402 34.377C29.9835 34.2224 30.562 33.7859 30.7835 33.6243C31.0053 33.4608 30.8241 33.4669 30.838 33.4483C30.9237 33.3375 31.3345 32.9887 31.3744 32.9621C33.3146 31.6044 35.2849 30.649 37.2969 29.5447C37.4543 29.4588 37.2994 29.4185 37.3229 29.4045C37.8512 29.0845 37.5471 29.5576 37.9736 29.4485C37.8209 29.2831 38.0646 29.2031 38.448 28.9886C38.6331 28.8852 38.4927 28.8606 38.5064 28.8443C38.7276 28.5948 38.9944 28.6501 39.0587 28.6567C39.2967 28.6804 39.4371 28.4529 39.5995 28.4686C39.7613 28.484 39.5201 28.73 39.8982 28.5532C39.9724 28.4336 39.6046 28.3799 39.8805 28.2168C40.9082 27.5981 43.0392 26.8837 43.9408 26.5628C44.8369 26.2371 45.1355 26.1158 45.663 25.9555C46.6277 25.6677 46.2306 25.6491 46.8041 25.3795C47.3803 25.1127 47.2056 25.5622 47.3167 25.6086C47.425 25.6563 47.4903 25.5484 47.6079 25.5557C47.7251 25.5631 47.5179 25.6881 47.7665 25.6238C48.0142 25.5589 48.6435 25.2104 48.7075 25.104C48.8397 24.8786 48.4837 24.7943 49.154 24.6562C49.1925 24.6485 49.0994 24.7786 49.2457 24.7442C50.4104 24.4677 51.6043 24.1381 52.7826 23.9038C52.9427 23.8723 52.8284 24.0133 52.9219 23.9962C53.8973 23.8212 53.5102 23.7314 53.993 23.405C53.9366 23.6966 54.2706 23.7827 55.0028 23.6158C55.4422 23.5167 55.3408 23.4193 55.6086 23.2747C55.689 23.2311 56.0198 23.2418 56.0651 23.1755C56.2154 22.9586 55.8749 22.8222 56.6579 22.7404C56.6582 22.7403 56.6585 22.7403 56.6589 22.7403C56.671 22.7391 56.6681 22.7532 56.6643 22.7711C56.6593 22.7947 56.6529 22.8249 56.6777 22.8358C56.6875 22.8401 56.7022 22.8414 56.7238 22.8381C57.483 22.723 57.5359 22.5191 58.3421 22.3435C58.9748 22.2054 60.1342 22.1225 60.8625 22.0297C60.8945 22.3311 61.5716 22.1572 61.8208 21.9109C62.2947 21.8512 62.8022 21.7707 63.2678 21.7412C63.4273 21.731 63.3342 21.8312 63.3554 21.8381C63.679 21.9475 63.8599 21.7215 63.9614 21.7015C65.0592 21.4952 65.9838 21.5599 67.0366 21.3255C67.0739 21.3172 67.1198 21.102 67.4167 21.2342C67.4358 21.2435 67.0912 21.3647 67.5927 21.3357C68.0913 21.3065 69.0461 21.3621 69.7361 21.2364C69.9037 21.2055 70.3184 21.0182 70.6706 21.1416C70.717 21.1584 70.6686 21.2202 70.7358 21.2519C70.9522 21.3529 71.0636 21.137 71.3175 21.3125C71.5731 21.4882 72.0816 21.6135 72.7884 21.4887C72.8107 21.4851 72.9774 21.3163 73.1979 21.3203C73.5503 21.3266 74.0433 21.369 74.416 21.3773C74.5928 21.3812 74.4824 21.2736 74.5131 21.2725C75.6976 21.2468 76.5424 21.381 77.8007 21.5184C78.0337 21.5438 78.7137 21.4592 79.1452 21.6181C79.6272 21.7947 79.0713 22.2457 80.202 22.2564C80.6463 22.2623 81.3301 21.6933 82.0837 22.1565C83.6792 22.3304 85.0774 22.8001 86.6466 23.1061C86.7136 23.1189 86.9877 23.0063 87.1511 23.0564C87.394 23.1311 87.5016 23.2525 87.6707 23.3101C88.3723 23.5526 89.0563 23.7096 89.7306 23.9796C89.9881 24.0835 89.8666 24.13 90.1685 24.2559C90.4678 24.3827 90.7124 24.3582 91.1018 24.5924C91.3963 24.7713 91.5818 25.1183 91.9726 25.3451C92.0916 25.1443 92.3687 25.2841 92.8669 25.4881C92.9626 25.5274 92.9056 25.4029 92.953 25.4179C93.1531 25.481 93.284 25.6339 93.4724 25.6925C93.5182 25.707 93.5609 25.6396 93.6008 25.6477C93.9415 25.7121 94.3002 26.1589 94.3584 26.2373C94.5858 26.5334 94.7743 26.541 94.9644 26.738C95.1556 26.9383 94.7946 26.7421 95.0314 26.9545C95.516 27.3897 96.1502 27.9209 96.6021 28.3928C96.7844 28.5824 96.7364 28.3798 96.7643 28.4052C97.1642 28.7803 97.4208 29.2762 97.7708 29.3909C97.5475 30.0184 98.0233 29.617 98.347 30.3472C98.3711 30.4055 98.1863 30.6002 98.0358 30.4246C97.8865 30.2515 97.7569 29.9078 97.521 29.6904C97.466 29.6355 97.0108 29.4488 96.9618 29.416C96.5844 29.1435 96.8278 28.8462 96.8268 28.811C96.8109 28.4467 96.2363 28.2441 96.127 28.1692C95.6058 27.7916 95.2257 27.4131 94.7562 27.1366C94.4504 26.9589 94.2807 27.1515 94.0633 26.9918C93.3277 26.4678 93.2328 26.003 92.3324 25.8613C92.1388 25.8342 92.1786 26.1618 91.6907 25.6709C91.6577 25.6381 91.3107 25.247 90.9994 25.2456C90.9606 25.2454 90.9282 25.3195 90.883 25.3065C90.5812 25.219 90.4069 25.0735 90.0872 24.9748C89.7653 24.8754 89.3594 24.7664 89.0059 24.6085C88.795 24.5136 88.56 24.2723 88.4639 24.2007C88.1935 23.9959 87.8089 24.0555 87.6628 23.8754C87.5103 23.6929 87.9446 23.6203 87.4635 23.386C87.384 23.5816 87.2791 23.7753 87.1889 23.9689C86.0884 23.6334 85.0192 23.3005 83.8786 23.0764C83.7365 23.0489 83.859 23.189 83.7063 23.1627C83.0824 23.0561 82.5254 22.8743 81.8649 22.8018C81.3553 22.7463 80.7566 22.7822 80.2274 22.7465C79.9352 22.4662 79.1057 22.4538 78.5352 22.3802C78.3321 22.3538 78.3514 22.2912 78.2074 22.2575C77.6623 22.1334 77.9031 22.3675 77.7492 22.3884C77.0847 22.4809 77.0765 21.9972 76.3039 21.9647C76.2631 21.9625 75.7504 22.1936 75.6813 22.207C75.2478 22.2926 75.6144 22.1146 75.3456 22.0847C74.8542 22.0313 74.5086 21.9594 73.9198 22.0239C73.751 22.0431 73.3455 22.1976 73.0161 22.0731C72.9727 22.0567 72.997 21.9721 72.962 21.967C72.3282 21.8837 72.3049 22.1518 71.951 22.2455C71.5951 22.3393 71.0344 22.1684 70.9182 22.1189C70.616 21.99 71.1454 22.0542 71.1608 22.0408C71.3467 21.8765 70.9394 21.9127 70.6248 21.9092C70.5708 21.6493 70.1328 21.6801 70.2993 21.9069C70.3165 21.9316 70.5618 21.899 70.6248 21.9092C70.3528 22.1738 69.8888 22.2227 69.347 22.0094C69.0932 21.9101 69.3228 21.7651 68.5668 21.8557C68.2261 21.8978 68.3702 22.0691 68.0738 22.1372C67.3992 22.2927 66.4862 22.1979 65.7863 22.292C65.5308 22.3262 65.7901 22.4001 65.6159 22.427C65.1546 22.499 64.7307 22.4699 64.2737 22.5604C64.2321 22.5688 64.3465 22.6593 64.2025 22.6772C63.107 22.8173 62.1489 22.8803 61.0029 23.0566C60.4519 23.1405 59.4825 23.3618 58.9079 23.4563C58.2752 23.5589 57.5366 23.6346 56.8646 23.7373C56.4931 23.7939 56.1451 23.8578 55.8502 23.9359C55.3104 24.0793 55.453 24.1539 55.2364 24.2749C54.8221 24.5078 53.9663 24.4634 53.8517 24.4534C53.8479 24.4528 54.3095 24.3158 54.0476 24.3249C53.8764 24.2531 53.8568 24.4517 53.8517 24.4534C53.7739 24.4461 52.8453 24.6561 52.6617 24.726C52.5638 24.7627 52.6448 24.8424 52.5934 24.8598C51.3749 25.2699 50.1508 25.6472 48.9009 25.9917C48.8784 25.9967 48.8787 25.8821 48.8261 25.8952C48.0889 26.0769 47.6816 26.3524 47.1169 26.6279C46.5534 26.9038 46.0863 27.0426 45.68 26.9904C45.2467 27.172 44.5867 27.3315 44.2106 27.4235C43.8337 27.5155 43.8626 27.7335 43.8317 27.75C42.889 28.2683 42.2913 28.3844 41.2715 28.8102C40.7947 29.0079 39.8584 29.4713 39.3655 29.736C38.9779 29.9432 38.7075 30.0208 38.3551 30.2332C38.3073 30.262 38.4 30.3213 38.3865 30.3322C38.0297 30.6393 38.1213 30.3341 38.0182 30.34C37.6452 30.3622 37.4224 30.3857 36.9308 30.7277C36.8173 30.8064 36.6292 31.2869 36.4262 31.4217C36.16 31.5976 36.2112 31.4321 35.9294 31.6239C35.9055 31.6402 35.9466 31.7012 35.7646 31.8012C34.9262 32.2629 34.0084 32.7698 33.1843 33.3171C33.0702 33.3926 33.2806 33.3944 33.1175 33.505C32.3584 34.0198 31.5335 34.5949 30.7945 35.0867C30.6097 35.2096 30.6708 35.0606 30.6177 35.0703C30.2921 35.1329 30.0983 35.5576 30.0489 35.6026C28.843 36.7013 27.7855 37.3877 26.7214 38.6479C26.659 38.7197 26.3722 39.3752 26.0306 39.4774C26.0073 39.4843 25.653 39.5906 25.5921 39.8853C25.5888 39.9034 25.7855 39.8232 25.5738 40.0702C25.3665 40.3121 25.0972 40.7813 24.7556 41.0772C24.6504 41.1663 24.2845 41.3446 24.1991 41.7868C24.1904 41.8173 24.1757 42.5484 23.8529 42.6305C23.8012 42.6431 23.5787 42.4861 23.4766 42.9889C23.458 43.0862 23.5866 42.9562 23.5095 43.1993C23.3933 43.5705 23.1327 43.9989 23.0905 44.4772C23.082 44.5626 23.1478 44.9263 22.9452 45.1513C22.9134 45.1865 22.8498 45.0848 22.8025 45.2211C22.58 45.8652 22.5243 46.5797 22.4415 47.2554C22.4141 47.4957 22.273 47.3685 22.2354 47.6264C22.1959 47.8839 22.1973 48.4102 22.303 48.6673C22.4074 48.922 22.5842 48.6037 22.6687 48.9836C22.6801 49.0322 22.6919 49.0807 22.704 49.1291C23.0919 50.7069 23.8265 52.2128 25.0081 53.4663C25.1899 53.6561 25.0961 53.449 25.3691 53.7149C26.3598 54.732 28.5433 56.0199 29.6403 56.7057C30.5065 57.2693 29.2903 56.8127 29.9828 57.1988C30.3218 57.3848 30.82 57.3087 30.9022 57.3336C31.7651 57.5993 32.3141 57.921 33.113 58.1455C33.2782 58.1912 33.1529 58.0384 33.2897 58.077C33.7529 58.2061 34.2437 58.4005 34.6982 58.5155C34.9008 58.5662 34.8847 58.4773 35.0694 58.5327C35.5113 58.6633 35.9142 58.7966 36.3321 58.9698C36.3709 58.9858 36.0767 59.0233 36.4115 59.1029C36.9565 59.2313 37.6261 59.444 38.2758 59.4801C38.4695 59.4904 38.5092 59.3091 38.8956 59.504C38.9756 59.5441 38.831 59.7491 39.3329 59.632C39.4153 59.6136 40.2568 59.4739 40.6222 59.6886C40.7187 59.7458 40.9593 59.9609 41.193 59.9591C41.2246 59.9581 41.1116 59.8441 41.3029 59.8565C41.985 59.9023 42.6734 59.9791 43.3744 60.002C43.5611 60.0078 43.292 59.8833 43.5699 59.8948C44.3166 59.9252 45.2754 60.0025 46.0055 60.0587C46.278 60.0799 46.0866 60.1595 46.1061 60.1695C46.4218 60.3318 46.6187 60.1309 46.7256 60.1214C47.3933 60.0644 47.8842 60.1646 48.5003 60.1372C48.6698 60.1296 48.5491 60.0323 48.5828 60.0234C48.9315 59.9359 48.6738 60.1135 48.8935 60.131C49.5035 60.1802 50.1973 60.1561 50.8203 60.1202C51.0476 60.1068 50.7877 60.0032 50.9915 59.9924C52.2037 59.9253 53.4643 59.8537 54.6557 59.8105C54.8785 59.8026 54.7469 59.9021 54.7949 59.9178C55.1269 60.0284 55.5794 59.7921 55.6855 59.7628C56.1702 59.6296 56.368 59.6853 56.7972 59.6213C58.9039 59.3097 61.5065 58.942 63.4806 58.5738C63.6782 58.5374 63.8727 58.5012 64.0646 58.465C66.3679 58.0271 68.2449 57.6327 70.4562 56.973C70.6088 56.9272 70.4222 56.8606 70.553 56.8197C72.2311 56.2992 73.9093 55.7959 75.5499 55.1564C75.6857 55.1036 75.4507 55.0729 75.6671 54.9846C76.1113 54.8024 76.6711 54.5945 77.1324 54.4496C77.3587 54.3782 77.0984 54.5832 77.3255 54.5093C77.8556 54.3366 78.3989 54.1214 78.9147 53.8821C79.1347 53.7796 78.7542 53.8199 79.043 53.6947C80.9949 52.8424 82.8594 51.9161 84.8066 50.9961C84.9382 50.9338 85.1678 51.0681 85.4198 50.8732C85.4088 50.8062 85.3704 50.742 85.3455 50.6779C88.0026 49.106 90.5689 47.4353 92.8382 45.3627C92.9327 45.2758 92.6881 45.3373 92.8695 45.1691C93.9245 44.1842 94.8437 43.1504 95.8104 42.0661C95.9059 41.9568 96.0369 42.1441 96.2598 41.7781C96.3 41.7159 96.638 41.1693 96.6855 41.0023C96.6915 40.9798 96.5458 41.0237 96.6525 40.8498C97.2715 39.8395 97.8266 38.7465 98.2118 37.6608C98.2742 37.4835 98.3201 37.7055 98.3652 37.5785C98.6839 36.6817 98.7403 35.6476 98.8004 34.7585C98.8339 34.1563 99.0267 34.3647 99.1729 34.0151C99.1949 33.965 99.1412 33.5784 99.2389 33.5396C99.4898 33.4392 99.8088 33.5899 100.073 33.4613C100.133 33.4332 99.9541 32.8691 100.166 33.1822C100.183 33.2037 100.304 33.6186 100.365 33.7184C100.409 33.7877 100.497 33.6393 100.56 33.7862C100.623 33.9344 100.553 34.1112 100.622 34.3615C100.688 34.6135 100.812 34.4939 100.834 35.0134ZM42.5083 27.8628C42.139 27.9059 42.2357 28.2708 42.5564 28.0402C42.5718 28.0287 42.5272 27.8603 42.5083 27.8628ZM85.0778 23.0405C84.6629 22.7746 84.2952 22.945 84.5898 23.1396C84.8813 23.3345 85.2028 23.1213 85.0778 23.0405ZM89.7525 24.3398C89.2815 24.0202 89.0174 24.4882 89.6024 24.5959C89.6361 24.6024 89.7796 24.3585 89.7525 24.3398ZM99.2706 35.5675C99.2769 35.5629 99.2935 35.2812 99.2877 35.2744C99.1749 35.1233 99.1431 35.6788 99.2706 35.5675ZM94.1014 26.3942C93.994 26.2353 93.5365 26.0482 93.6676 26.2351C93.7678 26.3799 94.2323 26.5874 94.1014 26.3942ZM26.5211 37.461C26.5129 37.4611 26.364 37.606 26.3898 37.625C26.4719 37.6855 26.6535 37.46 26.5211 37.461ZM99.1198 32.6103C98.7914 31.4732 98.8222 30.5924 99.3108 31.8796C99.3893 32.1123 98.9904 31.4345 99.0665 31.7404C99.2002 32.2883 99.5744 32.5758 99.5555 33.1847C99.5541 33.2877 99.1423 32.6695 99.1186 32.6085C99.119 32.6091 99.1194 32.6097 99.1198 32.6103ZM42.1453 27.5275C42.1365 27.5256 41.8699 27.6326 41.8651 27.6401C41.7679 27.8098 42.3052 27.5941 42.1453 27.5275ZM21.2546 48.1687C21.2391 48.1861 21.3029 48.8701 21.3221 48.8903C21.5525 49.2098 21.4227 47.859 21.2546 48.1687ZM60.8752 22.0359C61.1722 21.8687 61.5479 21.7985 61.8194 21.911C61.5064 21.9481 61.1915 21.9941 60.8752 22.0359Z" fill="#E8AB0F"/>
</g>
<defs>
<filter id="filter0_d_4405_43" x="9.72748e-05" y="-2.47955e-05" width="121.939" height="82.9329" filterUnits="userSpaceOnUse" color-interpolation-filters="sRGB">
<feFlood flood-opacity="0" result="BackgroundImageFix"/>
<feColorMatrix in="SourceAlpha" type="matrix" values="0 0 0 0 0 0 0 0 0 0 0 0 0 0 0 0 0 0 127 0" result="hardAlpha"/>
<feMorphology radius="1" operator="dilate" in="SourceAlpha" result="effect1_dropShadow_4405_43"/>
<feOffset/>
<feGaussianBlur stdDeviation="10.05"/>
<feComposite in2="hardAlpha" operator="out"/>
<feColorMatrix type="matrix" values="0 0 0 0 0.831373 0 0 0 0 0.686275 0 0 0 0 0.215686 0 0 0 0.5 0"/>
<feBlend mode="normal" in2="BackgroundImageFix" result="effect1_dropShadow_4405_43"/>
<feBlend mode="normal" in="SourceGraphic" in2="effect1_dropShadow_4405_43" result="shape"/>
</filter>
</defs>
</svg>
